<?xml version="1.0" encoding="UTF-8"?>
<svg xmlns="http://www.w3.org/2000/svg" id="Layer_1" data-name="Layer 1" viewBox="0 0 24 24" width="512" height="512"><path d="M19,0H5C2.24,0,0,2.24,0,5v14c0,2.76,2.24,5,5,5h14c2.76,0,5-2.24,5-5V5c0-2.76-2.24-5-5-5Zm3,19c0,1.65-1.35,3-3,3H5c-1.65,0-3-1.35-3-3V5c0-1.65,1.35-3,3-3h14c1.65,0,3,1.35,3,3v14Zm-3-5c0,.55-.45,1-1,1H9c-.55,0-1-.45-1-1s.45-1,1-1h9c.55,0,1,.45,1,1Zm0,4c0,.55-.45,1-1,1h-6c-.55,0-1-.45-1-1s.45-1,1-1h6c.55,0,1,.45,1,1Zm0-8c0,.55-.45,1-1,1H6c-.55,0-1-.45-1-1s.45-1,1-1h12c.55,0,1,.45,1,1Zm0-4c0,.55-.45,1-1,1h-3c-.55,0-1-.45-1-1s.45-1,1-1h3c.55,0,1,.45,1,1Z"/></svg>
