<?xml version="1.0" encoding="UTF-8"?>
<svg xmlns="http://www.w3.org/2000/svg" id="Layer_1" data-name="Layer 1" viewBox="0 0 24 24">
  <path d="m12,12h3.537l7.645-7.732c.975-.975.975-2.561,0-3.535-.941-.944-2.586-.947-3.537.002l-7.645,7.732v3.533Zm1-3.123l7.354-7.438c.566-.566,1.555-.566,2.121,0,.585.585.585,1.536-.002,2.123l-7.354,7.438h-2.119v-2.123Zm7,9.123v-7.67l-1,1.012v6.658h-9v3c0,1.103-.897,2-2,2s-2-.897-2-2V3c0-.771-.301-1.468-.78-2h11.35l.938-.949c-.166-.029-.334-.051-.508-.051H3C1.346,0,0,1.346,0,3v3h5v15c0,1.654,1.346,3,3,3h13c1.654,0,3-1.346,3-3v-3h-4ZM5,5H1v-2c0-1.103.897-2,2-2s2,.897,2,2v2Zm18,16c0,1.103-.897,2-2,2h-10.766c.476-.531.766-1.232.766-2v-2h12v2Z"/>
</svg>
